REM DIRINDEX 1\2,1\3,1\4,1\5,1\6
REM DIRNAME "folder01","folder02","folder03","folder04","folder05","folder06"
TITLE ""
FILE "Disc6Track20.mp3" MP3
  TRACK 01 AUDIO
    TITLE "3:cjc161_11173"
    INDEX 01 00:00:00
  TRACK 02 AUDIO
    TITLE "4:cjc161_11174"
    INDEX 01 00:01:08
  TRACK 03 AUDIO
    TITLE "5:cjc161_11175"
    INDEX 01 00:05:10
  TRACK 04 AUDIO
    TITLE "6:cjc161_11176"
    INDEX 01 00:06:31
  TRACK 05 AUDIO
    TITLE "0:"
    INDEX 01 00:09:46
  TRACK 06 AUDIO
    TITLE "3:cjc161_11177"
    INDEX 01 00:10:03
  TRACK 07 AUDIO
    TITLE "4:cjc161_11178"
    INDEX 01 00:11:08
  TRACK 08 AUDIO
    TITLE "5:cjc161_11179"
    INDEX 01 00:17:44
  TRACK 09 AUDIO
    TITLE "6:cjc161_11180"
    INDEX 01 00:18:45
  TRACK 10 AUDIO
    TITLE "0:"
    INDEX 01 00:24:68
  TRACK 11 AUDIO
    TITLE "3:cjc161_11181"
    INDEX 01 00:25:24
  TRACK 12 AUDIO
    TITLE "4:cjc161_11182"
    INDEX 01 00:26:35
  TRACK 13 AUDIO
    TITLE "5:cjc161_11183"
    INDEX 01 00:28:69
  TRACK 14 AUDIO
    TITLE "6:cjc161_11184"
    INDEX 01 00:30:04
  TRACK 15 AUDIO
    TITLE "0:"
    INDEX 01 00:32:53
  TRACK 16 AUDIO
    TITLE "3:cjc161_11185"
    INDEX 01 00:33:10
  TRACK 17 AUDIO
    TITLE "4:cjc161_11186"
    INDEX 01 00:34:39
  TRACK 18 AUDIO
    TITLE "5:cjc161_11187"
    INDEX 01 00:37:06
  TRACK 19 AUDIO
    TITLE "6:cjc161_11188"
    INDEX 01 00:38:36
  TRACK 20 AUDIO
    TITLE "0:"
    INDEX 01 00:40:73
  TRACK 21 AUDIO
    TITLE "3:cjc161_11189"
    INDEX 01 00:41:27
  TRACK 22 AUDIO
    TITLE "4:cjc161_11190"
    INDEX 01 00:42:42
  TRACK 23 AUDIO
    TITLE "5:cjc161_11191"
    INDEX 01 00:46:16
  TRACK 24 AUDIO
    TITLE "6:cjc161_11192"
    INDEX 01 00:47:29
  TRACK 25 AUDIO
    TITLE "0:"
    INDEX 01 00:51:63
  TRACK 26 AUDIO
    TITLE "3:cjc161_11193"
    INDEX 01 00:52:15
  TRACK 27 AUDIO
    TITLE "4:cjc161_11194"
    INDEX 01 00:53:18
  TRACK 28 AUDIO
    TITLE "5:cjc161_11195"
    INDEX 01 00:57:20
  TRACK 29 AUDIO
    TITLE "6:cjc161_11196"
    INDEX 01 00:58:21
  TRACK 30 AUDIO
    TITLE "0:"
    INDEX 01 01:03:21
  TRACK 31 AUDIO
    TITLE "3:cjc161_11197"
    INDEX 01 01:03:52
  TRACK 32 AUDIO
    TITLE "4:cjc161_11198"
    INDEX 01 01:04:59
  TRACK 33 AUDIO
    TITLE "5:cjc161_11199"
    INDEX 01 01:09:37
  TRACK 34 AUDIO
    TITLE "6:cjc161_11200"
    INDEX 01 01:10:44
  TRACK 35 AUDIO
    TITLE "0:"
    INDEX 01 01:14:66
  TRACK 36 AUDIO
    TITLE "3:cjc161_11201"
    INDEX 01 01:15:22
  TRACK 37 AUDIO
    TITLE "4:cjc161_11202"
    INDEX 01 01:16:41
  TRACK 38 AUDIO
    TITLE "5:cjc161_11203"
    INDEX 01 01:20:07
  TRACK 39 AUDIO
    TITLE "6:cjc161_11204"
    INDEX 01 01:21:26
  TRACK 40 AUDIO
    TITLE "0:"
    INDEX 01 01:23:68
  TRACK 41 AUDIO
    TITLE "3:cjc161_11205"
    INDEX 01 01:24:23
  TRACK 42 AUDIO
    TITLE "4:cjc161_11206"
    INDEX 01 01:25:36
  TRACK 43 AUDIO
    TITLE "5:cjc161_11207"
    INDEX 01 01:28:13
  TRACK 44 AUDIO
    TITLE "6:cjc161_11208"
    INDEX 01 01:29:26
  TRACK 45 AUDIO
    TITLE "0:"
    INDEX 01 01:31:52
  TRACK 46 AUDIO
    TITLE "3:cjc161_11209"
    INDEX 01 01:32:07
  TRACK 47 AUDIO
    TITLE "4:cjc161_11210"
    INDEX 01 01:33:26
  TRACK 48 AUDIO
    TITLE "5:cjc161_11211"
    INDEX 01 01:36:08
  TRACK 49 AUDIO
    TITLE "6:cjc161_11212"
    INDEX 01 01:37:27
  TRACK 50 AUDIO
    TITLE "0:"
    INDEX 01 01:39:20
  TRACK 51 AUDIO
    TITLE "3:cjc161_11213"
    INDEX 01 01:39:58
  TRACK 52 AUDIO
    TITLE "4:cjc161_11214"
    INDEX 01 01:40:73
  TRACK 53 AUDIO
    TITLE "5:cjc161_11215"
    INDEX 01 01:43:22
  TRACK 54 AUDIO
    TITLE "6:cjc161_11216"
    INDEX 01 01:44:37
  TRACK 55 AUDIO
    TITLE "0:"
    INDEX 01 01:46:69
  TRACK 56 AUDIO
    TITLE "3:cjc161_11217"
    INDEX 01 01:47:24
  TRACK 57 AUDIO
    TITLE "4:cjc161_11218"
    INDEX 01 01:48:33
  TRACK 58 AUDIO
    TITLE "5:cjc161_11219"
    INDEX 01 01:50:18
  TRACK 59 AUDIO
    TITLE "6:cjc161_11220"
    INDEX 01 01:51:27
  TRACK 60 AUDIO
    TITLE "0:"
    INDEX 01 01:54:18
  TRACK 61 AUDIO
    TITLE "3:cjc161_11221"
    INDEX 01 01:54:47
  TRACK 62 AUDIO
    TITLE "4:cjc161_11222"
    INDEX 01 01:55:68
  TRACK 63 AUDIO
    TITLE "5:cjc161_11223"
    INDEX 01 02:01:49
  TRACK 64 AUDIO
    TITLE "6:cjc161_11224"
    INDEX 01 02:02:68
  TRACK 65 AUDIO
    TITLE "0:"
    INDEX 01 02:06:33
  TRACK 66 AUDIO
    TITLE "3:cjc161_11225"
    INDEX 01 02:06:64
  TRACK 67 AUDIO
    TITLE "4:cjc161_11226"
    INDEX 01 02:08:02
  TRACK 68 AUDIO
    TITLE "5:cjc161_11227"
    INDEX 01 02:14:58
  TRACK 69 AUDIO
    TITLE "6:cjc161_11228"
    INDEX 01 02:15:69
  TRACK 70 AUDIO
    TITLE "0:"
    INDEX 01 02:19:53
  TRACK 71 AUDIO
    TITLE "3:cjc161_11229"
    INDEX 01 02:20:08
  TRACK 72 AUDIO
    TITLE "4:cjc161_11230"
    INDEX 01 02:21:21
  TRACK 73 AUDIO
    TITLE "5:cjc161_11231"
    INDEX 01 02:22:52
  TRACK 74 AUDIO
    TITLE "6:cjc161_11232"
    INDEX 01 02:23:65
  TRACK 75 AUDIO
    TITLE "0:"
    INDEX 01 02:27:15
